<?xml version="1.0" encoding="utf-8"?>
<!-- Generator: Adobe Illustrator 15.1.0, SVG Export Plug-In . SVG Version: 6.00 Build 0)  -->
<!DOCTYPE svg PUBLIC "-//W3C//DTD SVG 1.1//EN" "http://www.w3.org/Graphics/SVG/1.1/DTD/svg11.dtd">
<svg version="1.1" id="Layer_1" xmlns="http://www.w3.org/2000/svg" xmlns:xlink="http://www.w3.org/1999/xlink" x="0px" y="0px"
	 width="494px" height="494px" viewBox="0 0 494 494" enable-background="new 0 0 494 494" xml:space="preserve">
<g>
	
		<rect x="72.345" y="72.345" transform="matrix(0.7071 -0.7071 0.7071 0.7071 -102.311 246.9995)" fill="#F2EDE8" width="349.309" height="349.31"/>
	<path fill="#F2EDE8" d="M167.217,414.216l0.135,0.136c0.011-0.102,0.021-0.203,0.031-0.304
		C167.329,414.104,167.277,414.161,167.217,414.216z"/>
	<path fill="#CAC0BC" d="M265.677,146.299c-3.164-2.595-6.856-5.601-11.174-8.564c-1.186-0.307-2.341-0.793-3.409-1.479
		c-1.01-0.66-1.897-1.467-2.66-2.368c-3.312-1.92-6.934-3.731-10.905-5.29c-4.14-1.575-8.754-2.757-13.587-3.046
		c-1.188,0.246-2.406,0.4-3.654,0.443c-1.197,0.04-2.373-0.024-3.53-0.169c-0.027,0.004-0.055,0.006-0.082,0.01
		c-7.457,0.979-14.627,4.623-20.794,9.482c-0.521,0.416-1.03,0.847-1.542,1.276c-0.538,0.747-1.149,1.446-1.84,2.068
		c-0.679,0.599-1.419,1.102-2.194,1.524c-5.014,4.728-9.588,10.012-13.956,15.515c-0.333,0.935-0.81,1.832-1.451,2.647
		c-0.617,0.784-1.343,1.435-2.134,1.96c-2.877,3.767-5.694,7.584-8.521,11.351c-0.112,0.153-0.225,0.305-0.337,0.458
		c-0.219,0.725-0.557,1.427-1.036,2.069c-0.463,0.62-1.017,1.129-1.624,1.535c-2.65,3.585-5.305,7.144-7.972,10.641
		c-0.188,0.565-0.452,1.115-0.839,1.614c-0.379,0.489-0.836,0.874-1.325,1.193c-2.633,3.407-5.281,6.746-7.956,9.983
		c-0.18,0.44-0.408,0.867-0.732,1.251c-0.314,0.373-0.684,0.662-1.073,0.909c-2.106,2.501-4.226,4.952-6.37,7.304
		c-0.674,0.745-1.35,1.48-2.027,2.208c-0.158,0.3-0.344,0.589-0.59,0.848c-0.238,0.252-0.509,0.449-0.791,0.62
		c-2.605,2.746-5.232,5.364-7.86,7.84c-0.13,0.197-0.277,0.386-0.46,0.554c-0.18,0.169-0.377,0.302-0.582,0.417
		c-2.385,2.212-4.767,4.31-7.134,6.281c-0.153,0.342-0.377,0.658-0.688,0.914c-0.304,0.243-0.647,0.395-1.001,0.476
		c-2.719,2.204-5.41,4.235-8.055,6.091c-0.155,0.263-0.365,0.5-0.636,0.685c-0.266,0.186-0.558,0.297-0.854,0.348
		c-2.083,1.42-4.117,2.731-6.092,3.939c-0.141,0.212-0.324,0.401-0.557,0.542c-0.229,0.136-0.478,0.209-0.726,0.233
		c-1.751,1.046-3.449,2.012-5.086,2.902c-0.122,0.159-0.277,0.297-0.467,0.398c-0.184,0.1-0.38,0.151-0.575,0.165
		c-1.614,0.86-3.164,1.645-4.64,2.36c-0.108,0.111-0.235,0.209-0.386,0.28c-0.144,0.068-0.293,0.103-0.442,0.117
		c-1.759,0.837-3.401,1.572-4.914,2.217c-0.058,0.039-0.106,0.09-0.175,0.117c-0.06,0.024-0.122,0.022-0.183,0.035
		c-6.472,2.73-10.433,3.751-10.349,3.842c-0.084-0.09,3.828-1.053,10.252-3.679c0.085-0.074,0.175-0.144,0.284-0.188
		c0.106-0.043,0.217-0.057,0.326-0.064c1.493-0.619,3.112-1.325,4.843-2.128c0.105-0.101,0.225-0.191,0.363-0.257
		c0.146-0.07,0.297-0.107,0.448-0.123c1.51-0.712,3.096-1.495,4.751-2.356c0.112-0.126,0.244-0.238,0.401-0.323
		c0.163-0.087,0.337-0.137,0.511-0.158c1.694-0.898,3.455-1.875,5.272-2.938c0.134-0.171,0.3-0.324,0.498-0.441
		c0.206-0.126,0.428-0.205,0.653-0.24c2.018-1.205,4.098-2.515,6.229-3.937c0.157-0.249,0.364-0.472,0.62-0.651
		c0.267-0.183,0.56-0.296,0.858-0.352c2.672-1.835,5.394-3.846,8.146-6.03c0.159-0.329,0.384-0.632,0.688-0.876
		c0.305-0.25,0.653-0.408,1.014-0.495c2.411-1.967,4.841-4.062,7.272-6.274c0.123-0.177,0.263-0.346,0.426-0.499
		c0.177-0.163,0.37-0.295,0.57-0.409c2.665-2.459,5.329-5.062,7.973-7.792c0.161-0.297,0.348-0.584,0.59-0.842
		c0.255-0.268,0.547-0.477,0.851-0.657c0.679-0.716,1.356-1.438,2.032-2.171c2.187-2.349,4.348-4.796,6.495-7.297
		c0.182-0.409,0.401-0.806,0.702-1.164c0.314-0.372,0.685-0.665,1.075-0.918c2.736-3.245,5.447-6.592,8.142-10.008
		c0.192-0.53,0.444-1.046,0.808-1.516c0.382-0.492,0.843-0.883,1.336-1.209c2.706-3.476,5.398-7.01,8.084-10.567
		c0.219-0.708,0.552-1.393,1.021-2.021c0.481-0.644,1.06-1.169,1.695-1.583c0.113-0.15,0.226-0.299,0.339-0.45
		c2.85-3.723,5.692-7.495,8.589-11.208c0.31-0.91,0.769-1.787,1.4-2.589c0.646-0.821,1.41-1.481,2.241-1.997
		c4.345-5.361,8.866-10.487,13.758-15.037c0.478-0.812,1.085-1.574,1.844-2.247c0.803-0.714,1.676-1.245,2.581-1.61
		c0.423-0.344,0.841-0.694,1.27-1.029c6.064-4.678,12.939-8.059,19.978-8.915c0.028-0.004,0.057-0.004,0.085-0.008
		c1.01-0.436,2.116-0.713,3.298-0.751c1.248-0.043,2.435,0.174,3.524,0.574c4.56,0.321,8.935,1.467,12.899,3.019
		c3.793,1.525,7.272,3.302,10.468,5.192c1.131,0.205,2.254,0.624,3.313,1.312c1.068,0.688,1.929,1.549,2.602,2.509
		c4.217,2.947,7.842,5.944,10.942,8.536c6.52,5.604,10.7,9.871,12.401,11.527c13.462,13.433,23.577,25.181,24.187,24.664
		c0.492-0.393-8.756-12.925-22.365-26.5C276.579,156.205,272.33,151.928,265.677,146.299z"/>
	<path fill="#CAC0BC" d="M265.877,134.14c1.741-2.241,1.066-6.024-0.299-9.274c-1.337-3.25-3.368-5.923-3.374-5.919
		c0.008,0.002-3.26-0.745-6.927-0.665c-3.661,0.045-7.615,1.019-8.811,3.593c-1.822,4.083-0.818,8.719,1.967,12.012
		c2.153,1.249,4.171,2.543,6.069,3.847C258.617,138.801,263.128,137.604,265.877,134.14z"/>
	<path fill="#CAC0BC" d="M251.094,136.256c1.068,0.686,2.224,1.171,3.409,1.479c-1.898-1.304-3.916-2.598-6.069-3.847
		C249.196,134.79,250.084,135.596,251.094,136.256z"/>
	<path fill="#CAC0BC" d="M223.941,125.553c2.261-0.469,4.406-1.289,6.397-2.437c2.997-1.773,5.608-4.331,6.631-7.756
		c1.072-3.397-2.229-7.841-7.024-10.871c-4.695-3.096-10.572-4.378-10.55-4.348c0.035-0.009-5.768,1.616-10.462,5.144
		c-4.805,3.444-7.887,8.358-6.435,11.609c1.395,3.298,4.323,5.524,7.501,7.007c2.159,0.982,4.417,1.633,6.757,1.926
		C219.185,125.482,221.589,125.412,223.941,125.553z"/>
	<path fill="#CAC0BC" d="M220.287,125.996c1.248-0.042,2.467-0.197,3.654-0.443c-2.353-0.141-4.757-0.071-7.185,0.274
		C217.914,125.972,219.09,126.035,220.287,125.996z"/>
	<path fill="#CAC0BC" d="M195.359,123.657c-1.475-2.431-5.68-2.841-9.459-2.278c-3.782,0.528-7.012,1.858-7,1.854
		c-0.006-0.004-1.698,3.029-2.532,6.484c-0.861,3.467-0.908,7.312,1.181,9.231c3.553,3.213,8.69,3.455,12.756,1.239
		c1.312-1.238,2.656-2.438,4.034-3.593C197.039,132.846,197.726,127.759,195.359,123.657z"/>
	<path fill="#CAC0BC" d="M194.339,136.595c-1.378,1.155-2.722,2.354-4.034,3.593c0.775-0.423,1.516-0.925,2.194-1.524
		C193.189,138.041,193.801,137.342,194.339,136.595z"/>
	<path fill="#CAC0BC" d="M173.792,145.7c-3.744-3.224-12.836,1.668-12.797,1.687c-0.061,0.03-2.543,9.754,1.404,12.673
		c3.111,2.348,7.267,2.309,10.364,0.25c1.183-1.548,2.377-3.085,3.585-4.608C177.585,152.23,176.709,148.216,173.792,145.7z"/>
	<path fill="#CAC0BC" d="M174.897,158.35c0.642-0.816,1.118-1.713,1.451-2.647c-1.208,1.522-2.402,3.06-3.585,4.608
		C173.555,159.785,174.28,159.134,174.897,158.35z"/>
	<path fill="#CAC0BC" d="M161.585,164.951c-2.906-2.174-9.236,1.392-9.229,1.382c-0.003,0.007-1.584,7.022,1.31,9.198
		c2.281,1.718,5.323,1.703,7.58,0.192c0.887-1.199,1.773-2.4,2.66-3.604C164.681,169.541,163.844,166.651,161.585,164.951z"/>
	<path fill="#CAC0BC" d="M162.87,174.188c0.479-0.643,0.817-1.344,1.036-2.069c-0.887,1.204-1.773,2.405-2.66,3.604
		C161.854,175.317,162.407,174.809,162.87,174.188z"/>
	<path fill="#CAC0BC" d="M151.446,180.368c-2.383-1.794-7.578,0.985-7.575,0.972c0.009,0.006-1.37,5.693,0.96,7.557
		c1.857,1.485,4.388,1.513,6.279,0.275c0.722-0.934,1.444-1.864,2.164-2.808C153.985,184.229,153.329,181.797,151.446,180.368z"/>
	<path fill="#CAC0BC" d="M152.436,187.979c0.387-0.499,0.65-1.049,0.839-1.614c-0.72,0.943-1.442,1.874-2.164,2.808
		C151.6,188.852,152.057,188.468,152.436,187.979z"/>
	<path fill="#CAC0BC" d="M141.812,193.828c-1.996-1.617-6.532,0.57-6.532,0.553c0.009,0-1.362,4.824,0.563,6.52
		c1.573,1.384,3.815,1.485,5.506,0.415c0.603-0.716,1.205-1.433,1.806-2.16C143.904,197.317,143.429,195.141,141.812,193.828z"/>
	<path fill="#CAC0BC" d="M143.154,199.155c-0.601,0.727-1.203,1.443-1.806,2.16c0.39-0.247,0.759-0.536,1.073-0.909
		C142.746,200.022,142.975,199.595,143.154,199.155z"/>
	<path fill="#CAC0BC" d="M132.173,206.289c-1.553-1.41-5.34,0.146-5.34,0.131c0.01,0.002-1.341,3.85,0.146,5.338
		c1.25,1.235,3.148,1.411,4.591,0.538c0.461-0.486,0.921-0.974,1.381-1.468C133.736,209.341,133.468,207.468,132.173,206.289z"/>
	<path fill="#CAC0BC" d="M132.951,210.828c-0.46,0.494-0.92,0.982-1.381,1.468c0.282-0.171,0.553-0.367,0.791-0.62
		C132.607,211.417,132.793,211.127,132.951,210.828z"/>
	<path fill="#CAC0BC" d="M123.373,216.475c-1.14-1.178-4.181-0.15-4.184-0.162c0.011,0.006-1.235,2.949-0.15,4.18
		c0.932,1.043,2.449,1.272,3.629,0.614c0.347-0.323,0.694-0.643,1.042-0.971C124.452,219.01,124.344,217.485,123.373,216.475z"/>
	<path fill="#CAC0BC" d="M123.71,220.136c-0.348,0.328-0.695,0.648-1.042,0.971c0.205-0.115,0.402-0.248,0.582-0.417
		C123.433,220.522,123.58,220.333,123.71,220.136z"/>
	<path fill="#CAC0BC" d="M115.187,224.795c-0.887-1.047-3.479-0.355-3.477-0.359c0.009,0-1.199,2.385-0.355,3.469
		c0.605,0.776,1.586,1.08,2.491,0.873c0.562-0.456,1.125-0.92,1.688-1.39C115.911,226.549,115.815,225.544,115.187,224.795z"/>
	<path fill="#CAC0BC" d="M115.534,227.387c-0.563,0.47-1.127,0.934-1.688,1.39c0.354-0.081,0.697-0.233,1.001-0.476
		C115.157,228.045,115.381,227.729,115.534,227.387z"/>
	<path fill="#CAC0BC" d="M105.791,234.868c0.421-0.711,0.414-1.627-0.097-2.346c-0.697-0.967-3.01-0.553-3.008-0.557
		c0.012,0.006-1.205,2.008-0.553,3.006c0.485,0.732,1.349,1.072,2.167,0.93c0.146-0.1,0.292-0.196,0.439-0.297
		C105.089,235.364,105.44,235.114,105.791,234.868z"/>
	<path fill="#CAC0BC" d="M105.791,234.868c-0.351,0.246-0.702,0.496-1.051,0.736c-0.147,0.102-0.293,0.197-0.439,0.297
		c0.297-0.051,0.589-0.163,0.854-0.348C105.426,235.368,105.636,235.131,105.791,234.868z"/>
	<path fill="#CAC0BC" d="M98.243,237.957c-0.514-0.828-2.406-0.6-2.404-0.6c0.006,0.004-1.088,1.555-0.604,2.398
		c0.354,0.611,1.026,0.925,1.691,0.86c0.425-0.254,0.852-0.512,1.282-0.776C98.574,239.287,98.614,238.556,98.243,237.957z"/>
	<path fill="#CAC0BC" d="M98.209,239.84c-0.431,0.264-0.857,0.522-1.282,0.776c0.248-0.024,0.496-0.098,0.726-0.233
		C97.885,240.241,98.068,240.053,98.209,239.84z"/>
	<path fill="#CAC0BC" d="M91.965,241.98c-0.38-0.689-1.931-0.592-1.931-0.592c0.003,0-0.946,1.23-0.591,1.926
		c0.265,0.52,0.808,0.804,1.355,0.766c0.344-0.183,0.693-0.373,1.042-0.562C92.172,243.086,92.242,242.487,91.965,241.98z"/>
	<path fill="#CAC0BC" d="M91.374,243.916c0.189-0.101,0.345-0.239,0.467-0.398c-0.349,0.19-0.698,0.38-1.042,0.562
		C90.994,244.067,91.19,244.016,91.374,243.916z"/>
	<path fill="#CAC0BC" d="M86.414,244.916c-0.328-0.67-1.789-0.635-1.789-0.635c0.006,0.006-0.951,1.1-0.645,1.781
		c0.243,0.533,0.796,0.829,1.351,0.775c0.274-0.13,0.55-0.263,0.828-0.397C86.547,246.045,86.668,245.441,86.414,244.916z"/>
	<path fill="#CAC0BC" d="M86.159,246.44c-0.278,0.135-0.554,0.267-0.828,0.397c0.149-0.015,0.299-0.049,0.442-0.117
		C85.924,246.649,86.051,246.552,86.159,246.44z"/>
	<path fill="#CAC0BC" d="M80.786,247.834c-0.222-0.518-1.326-0.533-1.329-0.539c0.003-0.002-0.758,0.799-0.55,1.318
		c0.187,0.465,0.677,0.691,1.152,0.594c0.117-0.05,0.238-0.102,0.357-0.152C80.808,248.787,80.979,248.285,80.786,247.834z"/>
	<path fill="#CAC0BC" d="M80.417,249.055c-0.119,0.051-0.24,0.103-0.357,0.152c0.061-0.013,0.123-0.011,0.183-0.035
		C80.311,249.145,80.359,249.094,80.417,249.055z"/>
	<path fill="#CAC0BC" d="M237.134,141.378c-2.218,5.072,2.357,12.968,2.283,13.075c-0.002-0.003,2.333,0.12,5.21-0.111
		c2.865-0.253,6.286-0.854,8.028-3.091c2.749-3.46,2.859-8.194,0.474-11.599c-1.854-1.296-3.82-2.583-5.915-3.821
		C243.132,135.092,238.935,137.324,237.134,141.378z"/>
	<path fill="#CAC0BC" d="M250.527,137.144c-1.06-0.688-2.183-1.107-3.313-1.312c2.095,1.238,4.061,2.524,5.915,3.821
		C252.456,138.693,251.596,137.833,250.527,137.144z"/>
	<path fill="#CAC0BC" d="M217.024,127.798c-2.045,0.881-3.667,2.458-4.518,4.36c-1.331,2.859-1.056,6.312,0.331,9.593
		c1.444,3.255,4.373,5.567,5.95,7.661c1.657,2.026,2.404,3.514,2.426,3.492c0.011,0.004,0.687-1.511,2.45-3.64
		c1.679-2.155,4.638-4.683,5.698-8.076c1.025-3.419,0.854-6.891-0.773-9.622c-1.022-1.779-2.707-3.197-4.742-3.944
		C221.608,127.464,219.328,127.493,217.024,127.798z"/>
	<path fill="#CAC0BC" d="M217.024,127.798c2.304-0.305,4.584-0.334,6.822-0.177c-1.09-0.4-2.276-0.617-3.524-0.574
		C219.141,127.084,218.034,127.362,217.024,127.798z"/>
	<path fill="#CAC0BC" d="M193.309,153.572c2.089,1.918,5.556,1.962,8.378,1.798c2.833-0.19,5.026-0.581,5.026-0.579
		c-0.077-0.131,2.789-8.135,0.062-12.919c-2.312-4.028-7.037-5.755-11.083-4.123c-1.511,1.229-2.984,2.517-4.425,3.856
		C189.028,145.423,189.846,150.448,193.309,153.572z"/>
	<path fill="#CAC0BC" d="M191.268,141.605c1.44-1.339,2.914-2.627,4.425-3.856c-0.905,0.365-1.778,0.896-2.581,1.61
		C192.353,140.032,191.745,140.793,191.268,141.605z"/>
	<path fill="#CAC0BC" d="M176.888,171.04c3.913,2.893,12.3-1.5,12.283-1.434c-0.024-0.034,2.149-8.983-1.518-12.146
		c-2.921-2.521-7.032-2.745-10.144-0.818c-1.226,1.514-2.439,3.043-3.642,4.585C172.68,164.713,173.795,168.705,176.888,171.04z"/>
	<path fill="#CAC0BC" d="M175.269,158.639c-0.632,0.802-1.091,1.679-1.4,2.589c1.202-1.542,2.416-3.072,3.642-4.585
		C176.679,157.157,175.914,157.817,175.269,158.639z"/>
	<path fill="#CAC0BC" d="M164.536,183.699c2.9,2.178,9.234-1.38,9.229-1.375c0.003-0.01,1.592-7.042-1.307-9.213
		c-2.26-1.701-5.265-1.696-7.518-0.226c-0.904,1.204-1.81,2.405-2.716,3.604C161.428,179.075,162.265,181.988,164.536,183.699z"/>
	<path fill="#CAC0BC" d="M163.245,174.469c-0.469,0.627-0.802,1.312-1.021,2.021c0.906-1.199,1.812-2.4,2.716-3.604
		C164.305,173.3,163.727,173.825,163.245,174.469z"/>
	<path fill="#CAC0BC" d="M153.683,195.926c2.344,1.875,7.695-1.012,7.687-1.021c0.011-0.004,1.472-5.887-0.927-7.691
		c-1.891-1.436-4.413-1.406-6.302-0.156c-0.713,0.915-1.429,1.818-2.144,2.725C151.216,191.938,151.807,194.429,153.683,195.926z"/>
	<path fill="#CAC0BC" d="M152.805,188.266c-0.363,0.469-0.615,0.985-0.808,1.516c0.715-0.906,1.431-1.81,2.144-2.725
		C153.647,187.383,153.187,187.773,152.805,188.266z"/>
	<path fill="#CAC0BC" d="M143.237,207.352c1.946,1.721,6.686-0.604,6.683-0.615c0.017,0,1.495-5.062-0.517-6.691
		c-1.62-1.322-3.862-1.345-5.548-0.256c-0.591,0.701-1.184,1.392-1.777,2.082C141.258,203.726,141.648,205.959,143.237,207.352z"/>
	<path fill="#CAC0BC" d="M142.078,201.871c0.594-0.69,1.187-1.381,1.777-2.082c-0.391,0.253-0.761,0.546-1.075,0.918
		C142.479,201.065,142.26,201.462,142.078,201.871z"/>
	<path fill="#CAC0BC" d="M132.753,217.436c1.492,1.492,5.482-0.174,5.477-0.188c0.017,0,1.475-4.062-0.09-5.482
		c-1.286-1.17-3.152-1.281-4.589-0.427c-0.479,0.504-0.96,1.003-1.44,1.499C131.309,214.322,131.502,216.198,132.753,217.436z"/>
	<path fill="#CAC0BC" d="M132.11,212.838c0.48-0.496,0.961-0.995,1.44-1.499c-0.304,0.181-0.596,0.389-0.851,0.657
		C132.458,212.253,132.271,212.541,132.11,212.838z"/>
	<path fill="#CAC0BC" d="M123.341,225.285c1.096,1.238,4.287,0.141,4.287,0.129c0.008,0.006,1.348-3.096,0.197-4.287
		c-0.98-1.018-2.502-1.176-3.688-0.497c-0.332,0.307-0.664,0.606-0.996,0.908C122.354,222.669,122.388,224.216,123.341,225.285z"/>
	<path fill="#CAC0BC" d="M123.142,221.538c0.332-0.302,0.664-0.602,0.996-0.908c-0.2,0.114-0.394,0.246-0.57,0.409
		C123.404,221.192,123.265,221.361,123.142,221.538z"/>
	<path fill="#CAC0BC" d="M114.437,231.826c0.843,1.086,3.553,0.354,3.553,0.344c0.006-0.002,1.287-2.498,0.398-3.551
		c-0.632-0.748-1.617-1.024-2.519-0.807c-0.568,0.463-1.135,0.921-1.701,1.371C113.762,230.022,113.827,231.05,114.437,231.826z"/>
	<path fill="#CAC0BC" d="M114.168,229.183c0.566-0.449,1.133-0.907,1.701-1.371c-0.36,0.087-0.709,0.245-1.014,0.495
		C114.552,228.55,114.327,228.854,114.168,229.183z"/>
	<path fill="#CAC0BC" d="M104.544,236.216c-0.45,0.712-0.482,1.639,0.01,2.386c0.665,1.016,3.08,0.559,3.08,0.551
		c0.002-0.004,1.296-2.084,0.588-3.074c-0.511-0.711-1.38-1.018-2.199-0.865c-0.352,0.242-0.705,0.487-1.055,0.723
		C104.825,236.031,104.686,236.122,104.544,236.216z"/>
	<path fill="#CAC0BC" d="M104.544,236.216c0.142-0.094,0.281-0.185,0.424-0.28c0.35-0.235,0.703-0.481,1.055-0.723
		c-0.299,0.056-0.592,0.169-0.858,0.352C104.908,235.744,104.701,235.967,104.544,236.216z"/>
	<path fill="#CAC0BC" d="M97.015,242.816c0.484,0.842,2.456,0.607,2.456,0.602c0.003,0,1.146-1.625,0.629-2.451
		c-0.387-0.62-1.102-0.92-1.785-0.814c-0.387,0.231-0.77,0.458-1.151,0.681C96.728,241.39,96.643,242.173,97.015,242.816z"/>
	<path fill="#CAC0BC" d="M97.163,240.833c0.382-0.223,0.765-0.45,1.151-0.681c-0.226,0.035-0.447,0.113-0.653,0.24
		C97.463,240.51,97.297,240.662,97.163,240.833z"/>
	<path fill="#CAC0BC" d="M90.762,245.867c0.36,0.715,1.958,0.592,1.958,0.592c0.002,0,0.998-1.258,0.617-1.949
		c-0.291-0.533-0.874-0.807-1.446-0.738c-0.306,0.161-0.611,0.325-0.912,0.481C90.592,244.689,90.481,245.327,90.762,245.867z"/>
	<path fill="#CAC0BC" d="M90.979,244.253c0.301-0.156,0.606-0.32,0.912-0.481c-0.174,0.021-0.348,0.07-0.511,0.158
		C91.223,244.015,91.091,244.126,90.979,244.253z"/>
	<path fill="#CAC0BC" d="M85.111,248.525c0.305,0.678,1.822,0.654,1.819,0.646c0.003,0,0.989-1.146,0.661-1.814
		c-0.255-0.526-0.811-0.807-1.364-0.748c-0.273,0.129-0.543,0.255-0.812,0.38C85.01,247.379,84.864,247.987,85.111,248.525z"/>
	<path fill="#CAC0BC" d="M85.416,246.989c0.269-0.125,0.538-0.251,0.812-0.38c-0.151,0.016-0.303,0.053-0.448,0.123
		C85.641,246.798,85.521,246.888,85.416,246.989z"/>
	<path fill="#CAC0BC" d="M79.679,250.512c0.21,0.52,1.349,0.553,1.351,0.553c0,0.004,0.779-0.826,0.561-1.346
		c-0.179-0.412-0.593-0.63-1.017-0.602c-0.204,0.086-0.411,0.172-0.61,0.253C79.646,249.65,79.514,250.101,79.679,250.512z"/>
	<path fill="#CAC0BC" d="M79.963,249.37c0.199-0.081,0.406-0.167,0.61-0.253c-0.109,0.008-0.22,0.021-0.326,0.064
		C80.138,249.227,80.048,249.296,79.963,249.37z"/>
	<path fill="#CAC0BC" d="M168.851,414.189c-0.237-0.354-0.356-0.728-0.316-1.11c0.049-0.382,0.25-0.718,0.562-1.007
		c0.31-2.452,0.778-4.856,1.418-7.183c-0.124-0.316-0.154-0.63-0.068-0.929c0.095-0.288,0.288-0.525,0.558-0.715
		c0.564-1.799,1.206-3.556,1.97-5.23c0.233-0.524,0.494-1.021,0.742-1.531c-0.033-0.244-0.024-0.478,0.08-0.682
		c0.096-0.192,0.265-0.329,0.463-0.441c1.011-1.954,2.119-3.804,3.301-5.541c0.016-0.152,0.053-0.296,0.137-0.416
		c0.085-0.127,0.212-0.212,0.357-0.278c1.086-1.547,2.217-3.012,3.381-4.38c-0.037-0.293,0.007-0.547,0.172-0.721
		c0.155-0.173,0.396-0.246,0.681-0.246c1.359-1.533,2.739-2.95,4.112-4.244c0.005-0.235,0.069-0.432,0.212-0.564
		c0.139-0.134,0.337-0.182,0.568-0.166c1.099-0.988,2.175-1.912,3.225-2.776c0.015-0.195,0.077-0.355,0.2-0.456
		c0.123-0.097,0.288-0.123,0.477-0.098c0.934-0.755,1.84-1.46,2.717-2.119c0.022-0.149,0.079-0.27,0.179-0.343
		c0.097-0.073,0.224-0.093,0.367-0.069c0.87-0.645,1.697-1.23,2.495-1.782c0.031-0.104,0.081-0.19,0.16-0.242
		c0.074-0.047,0.166-0.06,0.265-0.053c0.95-0.649,1.836-1.228,2.656-1.746c0.025-0.041,0.041-0.094,0.081-0.118
		c0.035-0.021,0.084-0.01,0.126-0.015c3.489-2.192,5.654-3.21,5.583-3.29c0.067,0.084-2.093,1.036-5.604,3.127
		c-0.028,0.067-0.059,0.133-0.114,0.166c-0.055,0.032-0.125,0.027-0.196,0.022c-0.815,0.49-1.693,1.035-2.637,1.647
		c-0.033,0.105-0.086,0.192-0.167,0.244c-0.079,0.052-0.179,0.066-0.287,0.057c-0.82,0.538-1.671,1.112-2.566,1.745
		c-0.029,0.125-0.083,0.228-0.17,0.293c-0.091,0.067-0.208,0.09-0.342,0.075c-0.913,0.654-1.858,1.354-2.833,2.107
		c-0.026,0.163-0.09,0.295-0.197,0.381c-0.112,0.09-0.261,0.124-0.433,0.11c-1.088,0.854-2.206,1.769-3.349,2.75
		c-0.014,0.224-0.081,0.41-0.214,0.537c-0.141,0.131-0.341,0.181-0.576,0.17c-1.414,1.272-2.842,2.672-4.253,4.19
		c0.023,0.283-0.027,0.525-0.179,0.693c-0.158,0.168-0.402,0.243-0.693,0.251c-1.225,1.375-2.422,2.851-3.573,4.417
		c-0.022,0.134-0.065,0.258-0.137,0.364c-0.082,0.118-0.202,0.204-0.34,0.273c-1.248,1.75-2.426,3.621-3.508,5.606
		c0.009,0.215-0.013,0.418-0.1,0.594c-0.09,0.175-0.244,0.311-0.424,0.428c-0.277,0.536-0.565,1.061-0.827,1.613
		c-0.823,1.697-1.54,3.477-2.162,5.312c0.099,0.32,0.111,0.626,0.02,0.903c-0.083,0.29-0.274,0.541-0.548,0.754
		c-0.716,2.387-1.265,4.861-1.64,7.39c0.204,0.365,0.302,0.732,0.257,1.089c-0.04,0.372-0.231,0.721-0.535,1.04
		c-0.011,0.101-0.021,0.202-0.031,0.304l1.41,1.41C168.792,415.237,168.806,414.711,168.851,414.189z"/>
	<path fill="#CAC0BC" d="M200.282,438.789c0.007,0.054-4.138-1.112-9.21-0.717l5.56,5.559
		C198.989,441.038,200.25,438.739,200.282,438.789z"/>
	<path fill="#CAC0BC" d="M192.879,429.33c-0.017,0.077-5.844-2.484-12.203-1.654l6.479,6.478
		C190.676,431.917,192.844,429.26,192.879,429.33z"/>
	<path fill="#CAC0BC" d="M185.664,422.084c-0.03,0.057-4.007-2.625-8.782-2.752c-1.496-0.021-2.904,0.133-4.131,0.419l5.923,5.922
		C182.708,424.633,185.634,422.022,185.664,422.084z"/>
	<path fill="#CAC0BC" d="M175.44,416.662c3.936,0.121,7.366-1.982,7.359-1.93s-2.869-2.75-6.725-3.537
		c-3.076-0.585-5.828-0.188-6.979,0.877c-0.089,0.704-0.185,1.406-0.246,2.117C169.727,415.494,172.314,416.52,175.44,416.662z"/>
	<path fill="#CAC0BC" d="M168.534,413.079c-0.04,0.383,0.079,0.757,0.316,1.11c0.062-0.711,0.157-1.413,0.246-2.117
		C168.784,412.361,168.583,412.697,168.534,413.079z"/>
	<path fill="#CAC0BC" d="M175.722,408.109c3.308,0.742,6.576-0.531,6.557-0.494c0.001,0.043-1.99-2.852-5.137-4.1
		c-2.586-0.987-5.027-1.049-6.138-0.27c-0.171,0.545-0.338,1.09-0.489,1.644C171.007,406.155,173.049,407.472,175.722,408.109z"/>
	<path fill="#CAC0BC" d="M170.446,403.961c-0.086,0.299-0.056,0.612,0.068,0.929c0.151-0.554,0.318-1.099,0.489-1.644
		C170.734,403.436,170.541,403.673,170.446,403.961z"/>
	<path fill="#CAC0BC" d="M177.396,399.934c2.53,1.113,5.394,0.482,5.379,0.504c-0.036,0.012-1.125-2.669-3.521-4.095
		c-1.991-1.157-4.031-1.526-4.996-0.981c-0.188,0.366-0.361,0.749-0.543,1.123C173.864,397.582,175.308,398.99,177.396,399.934z"/>
	<path fill="#CAC0BC" d="M173.796,395.803c-0.104,0.204-0.113,0.438-0.08,0.682c0.182-0.374,0.354-0.757,0.543-1.123
		C174.061,395.474,173.892,395.61,173.796,395.803z"/>
	<path fill="#CAC0BC" d="M179.991,393.035c1.839,1.184,4.172,0.935,4.162,0.945c-0.026-0.001-0.545-2.271-2.262-3.607
		c-1.455-1.11-3.047-1.608-3.838-1.247c-0.164,0.233-0.333,0.457-0.494,0.694C177.47,390.692,178.438,392.018,179.991,393.035z"/>
	<path fill="#CAC0BC" d="M177.56,389.82c0.161-0.237,0.33-0.461,0.494-0.694c-0.146,0.066-0.272,0.151-0.357,0.278
		C177.612,389.524,177.575,389.668,177.56,389.82z"/>
	<path fill="#CAC0BC" d="M183.148,387.271c1.388,1.156,3.374,1.123,3.38,1.139c-0.006,0.008-0.203-1.969-1.521-3.226
		c-0.953-0.896-1.999-1.407-2.72-1.405c-0.284,0.32-0.57,0.636-0.853,0.967C181.527,385.46,182.164,386.438,183.148,387.271z"/>
	<path fill="#CAC0BC" d="M181.606,384.025c-0.165,0.174-0.209,0.428-0.172,0.721c0.282-0.331,0.568-0.646,0.853-0.967
		C182.002,383.779,181.762,383.853,181.606,384.025z"/>
	<path fill="#CAC0BC" d="M186.399,379.535c-0.013,0.635,0.447,1.567,1.25,2.41c1.104,1.151,2.854,1.285,2.85,1.291
		c-0.012-0.007,0.018-1.764-1.021-2.96c-0.768-0.873-1.667-1.428-2.299-1.472c-0.079,0.071-0.156,0.137-0.236,0.209
		C186.763,379.18,186.58,379.364,186.399,379.535z"/>
	<path fill="#CAC0BC" d="M186.611,378.971c-0.143,0.133-0.207,0.329-0.212,0.564c0.181-0.171,0.363-0.355,0.544-0.521
		c0.08-0.072,0.157-0.138,0.236-0.209C186.948,378.789,186.75,378.837,186.611,378.971z"/>
	<path fill="#CAC0BC" d="M191.271,378.037c0.823,0.996,2.251,1.19,2.245,1.19c-0.002,0.004,0.122-1.437-0.663-2.458
		c-0.575-0.743-1.264-1.225-1.771-1.295c-0.225,0.183-0.449,0.366-0.677,0.554C190.363,376.541,190.676,377.314,191.271,378.037z"/>
	<path fill="#CAC0BC" d="M190.604,375.572c-0.123,0.101-0.186,0.261-0.2,0.456c0.228-0.188,0.452-0.371,0.677-0.554
		C190.893,375.449,190.728,375.476,190.604,375.572z"/>
	<path fill="#CAC0BC" d="M194.419,375.047c0.625,0.842,1.777,1.045,1.777,1.045c-0.011-0.006,0.165-1.162-0.434-2.016
		c-0.446-0.636-1.006-1.066-1.419-1.133c-0.179,0.133-0.364,0.275-0.546,0.412C193.736,373.771,193.96,374.426,194.419,375.047z"/>
	<path fill="#CAC0BC" d="M193.977,373.013c-0.1,0.073-0.156,0.193-0.179,0.343c0.182-0.137,0.367-0.279,0.546-0.412
		C194.2,372.92,194.073,372.939,193.977,373.013z"/>
	<path fill="#CAC0BC" d="M197.342,372.848c0.555,0.816,1.636,1.041,1.638,1.048c0,0,0.208-1.085-0.327-1.911
		c-0.433-0.663-0.99-1.094-1.389-1.118c-0.138,0.095-0.284,0.197-0.425,0.295C196.725,371.539,196.909,372.209,197.342,372.848z"/>
	<path fill="#CAC0BC" d="M196.999,370.919c-0.079,0.052-0.129,0.139-0.16,0.242c0.141-0.098,0.287-0.2,0.425-0.295
		C197.165,370.859,197.073,370.872,196.999,370.919z"/>
	<path fill="#CAC0BC" d="M200.202,370.465c0.391,0.627,1.211,0.832,1.214,0.835c0,0,0.19-0.814-0.2-1.454
		c-0.336-0.557-0.787-0.893-1.089-0.858c-0.066,0.042-0.14,0.09-0.207,0.133C199.76,369.377,199.86,369.918,200.202,370.465z"/>
	<path fill="#CAC0BC" d="M199.92,369.12c0.067-0.043,0.141-0.091,0.207-0.133c-0.042,0.005-0.091-0.006-0.126,0.015
		C199.961,369.026,199.945,369.079,199.92,369.12z"/>
	<path fill="#CAC0BC" d="M167.383,414.048c0.078-0.714,0.173-1.423,0.278-2.129c-0.761-1.355-3.099-2.68-6.038-3.296l5.594,5.593
		C167.277,414.161,167.329,414.104,167.383,414.048z"/>
	<path fill="#CAC0BC" d="M167.918,413.008c0.045-0.356-0.053-0.724-0.257-1.089c-0.105,0.706-0.2,1.415-0.278,2.129
		C167.687,413.729,167.878,413.38,167.918,413.008z"/>
	<path fill="#CAC0BC" d="M164.944,398.994c-3.225-1.278-6.91,1.091-6.929,1.127c-0.011,0.041,1.71,4.083,5.084,4.842
		c2.647,0.631,5.108,0.417,6.201-0.434c0.167-0.558,0.343-1.11,0.528-1.657C169.422,401.551,167.502,399.972,164.944,398.994z"/>
	<path fill="#CAC0BC" d="M169.849,403.775c0.092-0.277,0.079-0.583-0.02-0.903c-0.186,0.547-0.361,1.1-0.528,1.657
		C169.574,404.316,169.766,404.065,169.849,403.775z"/>
	<path fill="#CAC0BC" d="M169.938,391.017c-2.402-1.435-5.693-0.175-5.681-0.136c-0.011,0.027,0.81,3.42,3.395,4.563
		c2.128,0.958,4.215,1.122,5.166,0.503c0.175-0.339,0.342-0.688,0.523-1.021C173.296,393.792,171.981,392.203,169.938,391.017z"/>
	<path fill="#CAC0BC" d="M173.242,395.52c0.087-0.176,0.108-0.379,0.1-0.594c-0.182,0.333-0.349,0.683-0.523,1.021
		C172.998,395.83,173.152,395.694,173.242,395.52z"/>
	<path fill="#CAC0BC" d="M175.083,385.23c-1.732-1.346-4.355-0.789-4.348-0.762c-0.012,0.014,0.306,2.67,2.146,3.854
		c1.555,1.02,3.179,1.397,3.969,0.997c0.156-0.218,0.318-0.423,0.477-0.638C177.475,387.801,176.599,386.389,175.083,385.23z"/>
	<path fill="#CAC0BC" d="M177.326,388.682c-0.158,0.215-0.32,0.42-0.477,0.638c0.138-0.069,0.258-0.155,0.34-0.273
		C177.261,388.939,177.304,388.815,177.326,388.682z"/>
	<path fill="#CAC0BC" d="M180.172,380.674c-1.321-1.251-3.5-1.053-3.505-1.048c-0.018-0.005,0.036,2.188,1.443,3.364
		c1,0.842,2.06,1.295,2.789,1.274c0.289-0.323,0.581-0.631,0.872-0.944C181.714,382.594,181.126,381.573,180.172,380.674z"/>
	<path fill="#CAC0BC" d="M181.593,384.014c0.151-0.168,0.202-0.41,0.179-0.693c-0.291,0.313-0.583,0.621-0.872,0.944
		C181.19,384.257,181.435,384.182,181.593,384.014z"/>
	<path fill="#CAC0BC" d="M186.814,378.423c0.039-0.638-0.383-1.596-1.161-2.487c-1.053-1.213-2.947-1.252-2.943-1.238
		c-0.004,0.002-0.139,1.894,0.964,3.045c0.802,0.846,1.713,1.358,2.351,1.388c0.186-0.168,0.374-0.35,0.56-0.513
		C186.662,378.55,186.737,378.489,186.814,378.423z"/>
	<path fill="#CAC0BC" d="M186.601,378.96c0.133-0.127,0.2-0.313,0.214-0.537c-0.077,0.066-0.152,0.127-0.23,0.194
		c-0.186,0.163-0.374,0.345-0.56,0.513C186.26,379.141,186.46,379.091,186.601,378.96z"/>
	<path fill="#CAC0BC" d="M189.977,373.064c-0.786-1.019-2.29-1.158-2.293-1.155s-0.204,1.503,0.618,2.497
		c0.613,0.747,1.345,1.225,1.861,1.267c0.211-0.167,0.421-0.329,0.63-0.491C190.876,374.67,190.576,373.841,189.977,373.064z"/>
	<path fill="#CAC0BC" d="M190.596,375.562c0.107-0.086,0.171-0.218,0.197-0.381c-0.209,0.162-0.419,0.324-0.63,0.491
		C190.335,375.687,190.483,375.652,190.596,375.562z"/>
	<path fill="#CAC0BC" d="M193.561,370.961c-0.601-0.858-1.813-1.05-1.812-1.043c-0.003,0.004-0.213,1.215,0.413,2.057
		c0.473,0.638,1.05,1.054,1.465,1.1c0.17-0.121,0.344-0.25,0.512-0.368C194.231,372.297,194.026,371.617,193.561,370.961z"/>
	<path fill="#CAC0BC" d="M194.138,372.706c-0.168,0.118-0.342,0.247-0.512,0.368c0.134,0.015,0.251-0.008,0.342-0.075
		C194.055,372.934,194.108,372.831,194.138,372.706z"/>
	<path fill="#CAC0BC" d="M196.687,368.977c-0.537-0.828-1.67-1.051-1.67-1.051c-0.005-0.006-0.242,1.132,0.314,1.947
		c0.436,0.643,0.98,1.053,1.373,1.088c0.15-0.1,0.307-0.205,0.454-0.301C197.277,370.285,197.107,369.622,196.687,368.977z"/>
	<path fill="#CAC0BC" d="M196.991,370.904c0.081-0.052,0.134-0.139,0.167-0.244c-0.147,0.096-0.304,0.201-0.454,0.301
		C196.812,370.971,196.912,370.956,196.991,370.904z"/>
	<path fill="#CAC0BC" d="M199.81,367.529c-0.389-0.637-1.23-0.836-1.23-0.836s-0.211,0.832,0.186,1.468
		c0.319,0.509,0.731,0.83,1.03,0.852c0.102-0.061,0.211-0.129,0.311-0.188C200.219,368.551,200.118,368.04,199.81,367.529z"/>
	<path fill="#CAC0BC" d="M200.105,368.824c-0.1,0.06-0.209,0.128-0.311,0.188c0.071,0.005,0.142,0.01,0.196-0.022
		C200.047,368.957,200.077,368.892,200.105,368.824z"/>
	<path fill="#CAC0BC" d="M301.878,438.589c0.068-0.076-2.255-0.906-4.326-3.469c-2.181-2.512-3.371-6.826-1.352-10.184
		c1.888-3.421,5.536-4.803,8.052-4.123c2.665,0.49,4.257,2.217,5.694,1.67c1.26-0.237,1.206-4.027-3.293-6.481
		c-4.354-2.8-12.522-0.417-15.353,5.523c-3.284,5.837-0.728,13.056,2.534,15.81c2.911,2.96,5.721,3.614,6.097,3.732l2.354-2.354
		C302.15,438.669,302.013,438.639,301.878,438.589z"/>
	<path fill="#CAC0BC" d="M346.385,374.468c-0.045,0.195-4.606,2.021-10.63,2.079c-0.006,0.032-2.423,0.026-3.722,1.14
		c0.03,0.004,3.754,0.407,6.468,0.958c0.041,0.015-0.663,0.351-1.715,0.644c-6.568-2.532-13.686-3.738-20.731-3.576
		c0.697-1.803,0.58-4.203-1.014-5.581c-0.007,0.234-1.637,3.581-4.852,4.851c0.013,0.022-0.97,0.461-1.632,1.43
		c-11.229,1.892-21.68,7.516-28.65,17.241c-10.017,13.837-11.604,31.704-8.843,47.823c1.354,7.485,3.762,14.684,6.927,21.532
		l1.371-1.371c-3.14-8.187-5.749-18.469-5.833-30.239c-0.034-15.143,9.793-27.312,19.361-29.849
		c9.567-2.729,15.773,0.479,15.637,0.255c0.123,0.245-5.863-3.401-15.854-0.988c-10.002,2.162-20.735,14.828-20.672,30.531
		c-0.009,0.486,0.006,0.974,0.007,1.461c-0.77-12.852,1.668-26.043,8.891-36.623c6.569-9.895,16.888-15.466,28.003-17.223
		c0.518,0.264,1.575,0.655,3.266,0.351c-0.025-0.024,0.716-0.181,1.689-0.894c13.164-0.742,26.819,3.645,36.308,12.416l2.054-2.054
		c-3.56-3.275-7.641-5.965-12.043-8.032C342.528,380.067,345.849,377.832,346.385,374.468z"/>
	<path fill="#CAC0BC" d="M265.413,423.935c-0.012-0.016,1.574-5.076,3.146-9.916c1.641-4.84,3.306-9.638,0.622-10.93
		c-2.535-1.24-5.146,3.673-6.222,9.121c-1.084,5.453-0.542,11.034-0.569,11.01c-1.157,15.517,3.659,30.835,11.592,43.797l1.17-1.17
		C267.965,453.051,263.957,438.372,265.413,423.935z"/>
	<path fill="#CAC0BC" d="M316.159,409.8c-5.696-5.68-14.573-7.835-22.216-5.374c-7.417,2.625-13.957,8.019-16.892,15.478
		c-3.004,7.358-2.071,15.531-1.476,22.687c0.364,6.449,2.062,12.605,4.332,18.501l0.648-0.648
		c-2.046-5.662-3.525-11.547-3.819-17.559c-0.422-7.352-1.252-15.04,1.57-21.996c2.651-6.941,8.873-12.018,15.686-14.46
		c6.906-2.371,14.912-0.399,20.086,4.569c3.023,2.672,5.039,6.366,5.696,10.227l2.051-2.051
		C320.812,415.574,318.82,412.247,316.159,409.8z"/>
	<path fill="#CAC0BC" d="M175.711,202.967c0.241-0.411,0.147-0.941-0.245-1.23c-0.081-0.058-0.171-0.089-0.261-0.119
		c-0.013,0-0.026,0.006-0.04,0.005c-0.061-0.004-0.119-0.021-0.178-0.047c-0.255-0.021-0.503,0.061-0.699,0.236
		c-0.014,0.031-0.01,0.072-0.029,0.099c-0.033,0.045-0.097,0.066-0.145,0.1c-0.146,0.241-0.17,0.517-0.09,0.77
		c0.044,0.055,0.079,0.114,0.097,0.179c0.005,0.018,0.002,0.038,0.005,0.057c0.061,0.091,0.132,0.177,0.226,0.246
		c0.411,0.302,0.989,0.215,1.301-0.191c0.013-0.024,0.008-0.058,0.024-0.08C175.685,202.98,175.702,202.978,175.711,202.967z"/>
	<path fill="#CAC0BC" d="M174.288,201.812c0.364-0.812-1.324-2.817-2.043-3.341c-0.744-0.545-1.79-0.38-2.337,0.36
		c-0.543,0.75-0.382,1.795,0.362,2.341c0.701,0.512,3.101,1.353,3.844,0.839c0.014-0.022,0.016-0.047,0.031-0.069
		C174.186,201.889,174.24,201.855,174.288,201.812z"/>
	<path fill="#CAC0BC" d="M174.288,201.812c-0.048,0.043-0.103,0.076-0.143,0.13c-0.016,0.021-0.018,0.047-0.031,0.069
		c0.048-0.034,0.111-0.054,0.145-0.1C174.278,201.885,174.274,201.843,174.288,201.812z"/>
	<path fill="#CAC0BC" d="M176.993,198.082c0.062-0.925-0.639-1.719-1.561-1.783c-0.921-0.061-1.716,0.638-1.777,1.56
		c-0.056,0.862,0.505,3.346,1.332,3.718c0.075,0.006,0.146,0.018,0.218,0.042C176.11,201.598,176.933,198.987,176.993,198.082z"/>
	<path fill="#CAC0BC" d="M175.205,201.619c-0.072-0.024-0.143-0.036-0.218-0.042c0.059,0.026,0.117,0.043,0.178,0.047
		C175.179,201.625,175.192,201.619,175.205,201.619z"/>
	<path fill="#CAC0BC" d="M178.26,198.928c-0.83,0.404-2.912,2.354-2.505,3.186c0.409,0.83,3.153,0.222,3.985-0.187
		c0.823-0.408,1.172-1.411,0.763-2.239C180.094,198.858,179.093,198.517,178.26,198.928z"/>
	<path fill="#CAC0BC" d="M179.659,203.729c-0.732-0.538-3.353-1.454-3.948-0.762c-0.017,0.029-0.021,0.061-0.041,0.088
		c-0.005,0.007-0.013,0.009-0.018,0.016c-0.398,0.798,1.309,2.83,2.032,3.359c0.747,0.543,1.796,0.383,2.341-0.361
		C180.568,205.321,180.404,204.273,179.659,203.729z"/>
	<path fill="#CAC0BC" d="M175.711,202.967c-0.009,0.01-0.026,0.013-0.034,0.024c-0.017,0.022-0.012,0.056-0.024,0.08
		c0.005-0.006,0.013-0.009,0.018-0.016C175.69,203.028,175.694,202.996,175.711,202.967z"/>
	<path fill="#CAC0BC" d="M174.99,203.439c-0.899-0.214-2.182,2.291-2.396,3.19c-0.215,0.897,0.341,1.8,1.241,2.014
		c0.897,0.215,1.799-0.341,2.017-1.239C176.066,206.503,175.889,203.654,174.99,203.439z"/>
	<path fill="#CAC0BC" d="M170.175,202.391c-0.892,0.244-1.415,1.164-1.172,2.054c0.246,0.893,1.164,1.416,2.057,1.173
		c0.876-0.238,3.2-1.706,3.066-2.602c-0.048-0.073-0.075-0.153-0.102-0.236C173.471,202.083,171,202.162,170.175,202.391z"/>
	<path fill="#CAC0BC" d="M174.024,202.781c0.026,0.083,0.054,0.163,0.102,0.236c-0.003-0.019,0-0.039-0.005-0.057
		C174.104,202.895,174.068,202.836,174.024,202.781z"/>
	<path fill="#CAC0BC" d="M339.075,144.268c0,0-1.526,3.051-3.308,3.674c-1.776,0.621-9.693,10.983-7.629,20.634
		C328.139,168.575,343.603,165.388,339.075,144.268z"/>
	<path fill="#CAC0BC" d="M363.846,160.524c-3.33-1.834-15.048-6.374-26.302,7.429c0,0,10.422-2.415,17.715-0.722
		c7.298,1.696,15.04-7.465,15.04-7.465S367.176,162.358,363.846,160.524z"/>
	<path fill="#CAC0BC" d="M353.436,143.59c0,0-2.479,3.193-4.82,3.24c-2.336,0.048-8.32,2.839-8.653,14.93
		C339.962,161.761,354.824,155.731,353.436,143.59z"/>
	<path fill="#CAC0BC" d="M208.792,83.038c-1.145,0.105-2.238,0.25-3.284,0.43c-1.546,6.294-5.758,17.692-15.994,17.84
		c0,0,3.912-0.425,7.96-5.257c-2.395,0.66-5.49-0.306-5.49-0.306c3.071,0.026,5.677-1.139,7.392-2.309
		c1.516-2.394,2.967-5.512,4.146-9.571c-19.293,4.397-20.439,21.312-20.439,21.312C206.021,108.84,208.792,83.038,208.792,83.038z"
		/>
	<path fill="#CAC0BC" d="M335.291,172.565c0.563,0.615,1.129,1.186,1.691,1.711c4.322-1.875,12.771-4.453,17.361,1.406
		c0,0-1.969-2.078-6.546-2.295c1.437,1.098,2.24,3.312,2.24,3.312c-1.337-1.789-3.157-2.784-4.59-3.262
		c-2.051,0.178-4.492,0.711-7.36,1.812c11.032,9.229,21.324,2.449,21.324,2.449C351.438,162.815,335.291,172.565,335.291,172.565z"
		/>
	<path fill="#CAC0BC" d="M195.855,198.378c0.753,9.21,18.92-0.761,18.92-0.761S195.068,188.755,195.855,198.378z"/>
	<path fill="#CAC0BC" d="M111.763,197.672c0,0-21.581-11.274-19.501,5.994C94.342,220.934,111.763,197.672,111.763,197.672z"/>
	<path fill="#CAC0BC" d="M109.456,285.298c0.801,0.53,1.687,1.291,2.669,2.347c5.084,5.464-0.83,6.916-5.439,5.957
		c2.922,10.942,28.106-2.349,28.106-2.349S116.785,281.458,109.456,285.298z"/>
</g>
<path fill="#CAC0BC" d="M385.414,345.574c0.106,0.131,2.496-6.651,9.704-13.913c6.138-6.586,16.882-12.87,28.517-14.297l7.947-7.947
	c-0.571-0.02-1.146-0.03-1.722-0.023c-15.704,0.14-29.473,8.421-37.013,16.676c-7.577,8.415-9.94,15.697-10.011,15.609
	c-3.17,6.917-4.692,14.131-4.835,21.318l4.026-4.026C382.511,354.432,383.61,349.932,385.414,345.574z"/>
<path fill="#CAC0BC" d="M201.563,448.562l7.103,7.104c2.867-3.986,4.167-7.587,4.235-7.533
	C212.889,448.186,207.682,447.354,201.563,448.562z"/>
</svg>
